PathFileType	4	(X/Y/Z)	s02c0201.trc
DataRate	CameraRate	NumFrames	NumMarkers	Units	OrigDataRate	OrigDataStartFrame	OrigNumFrames
200	200	4	51	mm	200	1750	2000
Frame#	Time	racr			lacr			c7			jug			rlel			rdr			llel			ldr			s2			lic			ric			lasi			rasi			rpsi			lpsi			rgt			lgt			rth1			rth2			rth3			rth4			rlfc			rmfc			rsh1			rsh2			rsh3			rsh4			rlmal			rmmal			rcal			rtoe			rmt5			rmt1			lth1			lth2			lth4			lth3			llfc			lmfc			lsh1			lsh2			lsh3			lsh4			llmal			lmmal			lcal			ltoe			lmt5			SBIKE			LBIKE			RBIKE			
		X1	Y1	Z1	X2	Y2	Z2	X3	Y3	Z3	X4	Y4	Z4	X5	Y5	Z5	X6	Y6	Z6	X7	Y7	Z7	X8	Y8	Z8	X9	Y9	Z9	X10	Y10	Z10	X11	Y11	Z11	X12	Y12	Z12	X13	Y13	Z13	X14	Y14	Z14	X15	Y15	Z15	X16	Y16	Z16	X17	Y17	Z17	X18	Y18	Z18	X19	Y19	Z19	X20	Y20	Z20	X21	Y21	Z21	X22	Y22	Z22	X23	Y23	Z23	X24	Y24	Z24	X25	Y25	Z25	X26	Y26	Z26	X27	Y27	Z27	X28	Y28	Z28	X29	Y29	Z29	X30	Y30	Z30	X31	Y31	Z31	X32	Y32	Z32	X33	Y33	Z33	X34	Y34	Z34	X35	Y35	Z35	X36	Y36	Z36	X37	Y37	Z37	X38	Y38	Z38	X39	Y39	Z39	X40	Y40	Z40	X41	Y41	Z41	X42	Y42	Z42	X43	Y43	Z43	X44	Y44	Z44	X45	Y45	Z45	X46	Y46	Z46	X47	Y47	Z47	X48	Y48	Z48	X49	Y49	Z49	X50	Y50	Z50	X51	Y51	Z51	
1750	8.7500	570.927541	1250.043160	-202.926746	545.215517	1237.104095	-546.452504	540.873562	1288.083574	-381.053709	504.873816	1147.928875	-367.166694	555.668977	1014.420279	-64.449523	706.421184	883.945892	-121.778118	518.470742	972.822283	-659.338253	692.059207	883.465898	-550.158986	-11.155879	1124.096781	-338.286627	126.385115	1067.906804	-470.369703	156.735885	1109.653386	-189.065273	179.620585	1084.039135	-443.484685	206.511748	1076.031462	-212.646733	47.308126	1150.751953	-275.544602	43.759222	1163.712656	-360.158653	117.295025	1015.046950	-147.905621	98.902138	1035.509388	-512.215184	185.290789	939.208932	-131.724095	243.656295	872.604485	-131.306156	263.747466	791.330391	-110.504118	271.449240	884.683983	-154.216719	304.906653	658.235193	-148.000012	300.352382	640.575769	-253.909049	286.763655	554.124751	-126.650924	293.238196	466.215270	-140.832760	257.395896	387.561592	-138.349613	308.655181	466.109372	-177.089793	228.938471	274.935099	-145.460729	239.421074	290.558630	-223.300153	146.402818	257.884840	-185.956002	401.898942	125.703549	-191.949865	298.512851	158.830517	-130.011256	326.192777	162.452099	-236.881514	230.970726	1010.528159	-511.629272	316.703951	1009.316065	-504.167615	324.420946	1039.440354	-483.703625	393.520839	963.685384	-506.215844	487.705288	926.993360	-483.354086	491.738317	901.392126	-370.680744	450.319208	837.157370	-496.323753	410.366441	762.567081	-478.729699	336.625357	710.897950	-485.197002	425.802046	752.410401	-442.233783	248.801731	638.464450	-473.128272	266.672162	630.089584	-394.713337	168.113699	619.558309	-434.188263	415.287808	474.704930	-442.428494	312.024766	505.400549	-501.555156	-165.307934	857.418896	-317.114188	32.859402	82.479142	-515.268622	32.949083	82.277095	-115.117415	
1751	8.7550	571.851659	1251.542019	-205.141601	543.223093	1238.322030	-548.701617	540.426849	1289.491236	-383.107708	504.180972	1149.432031	-368.774490	557.034120	1016.090454	-65.847824	706.370574	883.991608	-122.654445	518.378137	973.020642	-659.942813	692.284571	883.577071	-550.936453	-11.014321	1122.964815	-338.552792	126.391435	1068.228704	-470.664167	156.732877	1110.461111	-188.949189	179.555238	1083.177273	-443.917421	205.760538	1076.363045	-212.273693	47.461774	1152.177011	-275.204701	43.629282	1165.203272	-359.567505	116.347083	1015.953706	-148.072785	98.891611	1038.144804	-512.387088	184.165462	939.669535	-131.661358	242.587869	873.148881	-130.625756	262.596620	791.931268	-109.923929	270.573202	885.269339	-153.425141	304.109636	658.908538	-147.682728	300.460161	641.366286	-253.998661	284.602963	554.917795	-126.914297	288.848856	466.786868	-141.285333	251.942613	388.844249	-138.746888	304.890817	466.256826	-177.565769	220.815687	276.853445	-146.188601	232.285555	292.506057	-223.531097	138.284375	261.326822	-186.446291	391.418915	124.814163	-191.739589	288.440906	159.753796	-130.171412	316.274944	162.448628	-236.976242	230.427202	1012.631390	-510.772488	316.402797	1012.190558	-503.860566	324.009584	1042.355910	-483.346642	393.328029	966.793907	-505.817793	487.793477	930.758863	-483.088938	491.811662	905.078297	-370.399210	452.276357	839.903429	-496.180723	414.081830	764.355466	-478.774600	341.666976	711.043743	-485.567617	429.721613	754.649471	-442.168054	255.262630	636.209222	-473.560248	273.356151	628.249819	-395.204708	173.959619	615.734017	-435.191507	425.771907	476.674786	-442.519775	321.556120	504.520419	-501.794955	-165.164955	858.109023	-314.926319	32.849269	82.442376	-515.278664	32.951591	82.273112	-115.119274	
1752	8.7600	572.576287	1252.910441	-207.187520	541.275889	1239.520479	-550.842139	539.897400	1290.843186	-385.035009	503.410491	1150.872262	-370.330591	558.253894	1017.649940	-67.154375	706.309107	883.976911	-123.433671	518.295022	973.293947	-660.312343	692.437622	883.626848	-551.506940	-10.854066	1121.818342	-338.816594	126.401364	1068.562194	-470.959552	156.661779	1111.355131	-188.907756	179.486588	1082.318712	-444.349423	205.466349	1076.789914	-211.759458	47.571441	1153.614886	-274.938431	43.521744	1166.880370	-359.349652	115.587885	1016.728513	-148.121194	98.823805	1040.497230	-512.415560	183.259533	940.425257	-131.383353	241.956366	874.003145	-130.226102	262.157279	792.728818	-109.606818	270.120534	886.415920	-152.050812	304.080157	659.950220	-147.462382	301.099843	642.433443	-254.055398	283.301087	555.928156	-127.129737	285.382951	467.806607	-141.683734	246.699156	390.584578	-139.004357	301.450307	466.806266	-177.867565	212.971902	279.550771	-146.508976	224.841872	295.041867	-223.805717	129.738381	265.493213	-186.916576	380.873835	124.728112	-191.483505	278.388069	161.316587	-130.329667	306.372980	163.292532	-237.180482	230.239810	1015.132106	-510.936415	316.114242	1014.431653	-503.764034	323.715279	1044.669082	-483.221357	392.985420	969.074172	-505.619929	487.681037	933.650075	-482.929751	492.030821	907.716998	-370.351528	454.042064	841.970342	-496.193209	417.700240	765.441951	-479.113652	346.449015	710.424265	-485.873476	433.537645	755.947853	-442.663837	261.591240	633.171811	-474.127026	279.825596	625.786529	-395.974783	180.330895	610.944676	-435.968988	435.893432	478.060232	-442.868528	331.087465	503.079049	-501.856902	-165.279091	858.063128	-315.397275	32.830055	82.428492	-515.283993	32.938993	82.280539	-115.117857	
1753	8.7650	573.236349	1254.325793	-209.212116	539.353185	1240.821116	-552.789315	539.349244	1292.187685	-386.815403	502.723285	1152.279130	-371.743746	559.286551	1019.350042	-68.248345	706.339771	884.023353	-124.053158	518.184383	973.662750	-660.463653	692.549910	883.710931	-551.885316	-10.675921	1120.659567	-339.077035	126.414948	1068.906785	-471.255855	156.536897	1112.238774	-188.836947	179.414589	1081.464310	-444.780452	205.178300	1077.208709	-211.232484	47.698523	1155.042947	-274.736908	45.611280	1168.663828	-359.922935	114.916006	1017.761692	-148.094668	98.743677	1042.554433	-512.347627	182.374162	940.593858	-132.625491	241.750852	875.037054	-130.008330	262.305446	793.810434	-109.413912	269.806632	887.365912	-152.546731	305.155547	661.287465	-147.363510	302.324413	643.630879	-254.056912	282.435554	557.166766	-127.480424	282.320035	469.079028	-142.101044	241.831315	392.851610	-139.364922	298.325405	467.813514	-178.252444	205.135421	282.804150	-147.003518	217.581053	297.965034	-224.378964	121.882444	270.230639	-187.572179	370.390649	125.017715	-191.178883	268.422118	163.567460	-130.520778	296.909759	164.834361	-236.992052	230.103446	1017.042515	-511.207945	315.820338	1016.013688	-503.741557	323.520313	1046.292223	-483.298379	392.563378	970.411109	-505.543491	487.313026	935.631867	-482.887921	492.103266	909.495742	-370.462382	455.587186	843.296128	-496.350213	421.079270	765.831298	-479.614113	350.978143	709.061173	-486.498818	437.219270	756.469434	-443.212015	267.858274	629.366011	-474.754794	286.317370	622.514429	-396.572022	186.916575	605.239222	-436.677250	445.864015	478.824875	-443.266883	340.550611	500.919335	-502.263784	-165.244644	857.436740	-317.273665	32.807006	82.401645	-515.288570	32.940256	82.288054	-115.128971	
